<?xml version="1.0" encoding="UTF-8" standalone="no"?>
<!-- Created with Inkscape (http://www.inkscape.org/) -->

<svg
   width="60.964664mm"
   height="42.082031mm"
   viewBox="0 0 60.964664 42.082031"
   version="1.1"
   id="svg1"
   xmlns="http://www.w3.org/2000/svg"
   xmlns:svg="http://www.w3.org/2000/svg">
  <defs
     id="defs1" />
  <g
     id="layer2"
     style="display:inline"
     transform="translate(-44.085336,-66.938189)">
    <path
       style="fill:#d5ffe6;stroke:#000000;stroke-width:0.0263912"
       d="m 246.54928,265.51394 c -8.50879,-10e-4 -17.09717,0.91804 -25.19169,3.64818 -7.92936,2.59937 -15.27719,7.01544 -21.14691,12.96285 -5.58784,5.59154 -9.88605,12.33574 -13.36392,19.40115 -3.97412,7.70886 -7.63907,15.7387 -9.11713,24.34635 -0.57947,3.20326 -0.61156,6.47931 -0.47965,9.72247 0.48193,6.50273 2.79214,12.78483 6.27127,18.27237 2.68228,4.27786 6.01596,8.13173 9.59545,11.66753 0.54862,0.24708 0.8837,-0.51102 1.29124,-0.77263 33.84958,-31.89924 67.67572,-63.82447 101.4862,-95.76525 0.28837,-0.40513 1.0933,-0.69367 0.86024,-1.29058 -0.50646,-0.36301 -1.2106,-0.17869 -1.79996,-0.29521 -15.59324,-1.04758 -31.21687,-1.59494 -46.84106,-1.89336 -0.52135,-0.004 -1.04272,-0.005 -1.56408,-0.004 z"
       id="path60"
       transform="scale(0.26458333)" />
    <path
       style="fill:#d5ffd5;stroke:#000000;stroke-width:0.0527825"
       d="m 219.49071,340.85965 c -8.62667,8.01828 -17.2339,16.06371 -25.71551,24.2358 -0.90115,0.85751 0.79235,1.50303 1.24433,2.1587 6.34483,5.64613 13.01391,10.93974 19.94972,15.84189 10.53411,7.38254 22.33691,13.04331 34.87675,16.02594 14.60811,3.55109 29.7232,4.2046 44.69746,4.3287 1.06888,-0.74816 -1.05133,-1.53137 -1.51129,-2.17322 -24.35539,-20.13798 -48.65356,-40.34504 -73.06327,-60.41677 -0.1594,-4.2e-4 -0.33425,-0.1627 -0.47819,-10e-4 z"
       id="path61"
       transform="scale(0.26458333)" />
    <path
       style="fill:#d5fff6;stroke:#000000;stroke-width:0.0527825"
       d="m 380.90648,321.07274 c -20.16943,9.25612 -40.24536,18.72929 -60.36259,28.10246 -19.10795,8.95923 -38.252,17.84474 -57.31372,26.9003 -0.50476,0.8603 0.94496,1.26595 1.37481,1.8622 10.16427,8.52484 20.41115,16.95054 30.62211,25.41942 4.04162,0.24252 8.14849,-0.0628 12.21193,-0.18936 15.34102,-0.72046 30.83587,-2.60309 45.32682,-7.92165 10.57856,-3.92523 20.78618,-10.21366 27.05733,-19.8272 5.69646,-8.69105 7.49206,-19.43629 6.54198,-29.66337 -0.77581,-7.44283 -2.17951,-14.82448 -4.04835,-22.06823 -0.35414,-0.85065 -0.37241,-2.05221 -1.19419,-2.60317 -0.0701,-0.0208 -0.14432,-0.0246 -0.21613,-0.0114 z"
       id="path62"
       transform="scale(0.26458333)" />
    <path
       style="fill:#f6ffd5;stroke:#000000;stroke-width:0.0527825"
       d="m 345.93335,277.43549 c -0.77027,0.46071 -0.36808,1.6615 -0.61645,2.42997 -2.11126,20.05393 -4.21477,40.11704 -6.16045,60.18281 0.4184,0.83647 1.43208,-0.1134 2.02511,-0.24377 13.28187,-6.18258 26.58096,-12.33104 39.844,-18.55279 1.06272,-0.58615 -0.21491,-1.90721 -0.26847,-2.79729 -3.70259,-11.57952 -9.50544,-22.86127 -18.76256,-30.97712 -4.70184,-4.1722 -10.13745,-7.4929 -15.87508,-10.02697 -0.0608,-0.0137 -0.1238,-0.021 -0.1861,-0.0148 z"
       id="path63"
       transform="scale(0.26458333)" />
    <path
       style="fill:#f4d7d7;stroke:#000000;stroke-width:0.0527825"
       d="m 297.51829,267.69758 c -1.20143,0.082 -1.79439,1.41515 -2.71291,2.03331 -24.94325,23.48729 -49.86318,46.9999 -74.69008,70.61017 -0.47963,0.85641 0.93005,1.2371 1.33897,1.82511 13.61046,11.45573 27.36255,22.74192 41.05222,34.10268 1.11716,0.048 2.14004,-0.86098 3.21009,-1.21671 24.49306,-11.40457 48.97079,-22.84205 73.44919,-34.27812 0.5692,-1.12191 0.3235,-2.58726 0.57767,-3.84146 1.9801,-19.83296 4.01198,-39.66 6.096,-59.48292 -0.52213,-0.91768 -1.88351,-1.1011 -2.7428,-1.72081 -5.69888,-3.16891 -12.25073,-4.15003 -18.58775,-5.24608 -8.88113,-1.32886 -17.83187,-2.20197 -26.78966,-2.79104 l -0.1767,0.005 z"
       id="path64"
       transform="scale(0.26458333)" />
    <g
       transform="translate(94.801895,100.43105)"
       id="g8">
      <g
         transform="matrix(0.352778,0,0,0.352778,-0.974108,-0.832556)"
         id="g7">
        <g
           transform="translate(0,3.415)"
           id="g3">
          <g
             class="typst-text"
             transform="scale(1,-1)"
             id="g2">
            <g
               id="g1">
              <path
                 d="m 3.78,2.715 c 0,0.4549998 -0.45,0.7 -0.94,0.7 H 1.18 c -0.1150001,0 -0.165,-0.005 -0.165,-0.1200002 0,-0.08 0.1,-0.075 0.16,-0.075 0.1499999,-0.005 0.24,-0.015 0.2649999,-0.02 0.025,-0.005 0.035,-0.02 0.035,-0.045 0,-0.01 -0.005,-0.04 -0.02,-0.09 L 0.79499996,0.41 C 0.77,0.29999998 0.71999997,0.235 0.645,0.21 0.61,0.19999999 0.52,0.195 0.36499998,0.195 0.26,0.195 0.21,0.155 0.21,0.075 0.21,0.025 0.26,0 0.36499998,0 H 2.1299999 C 2.455,0 2.7549999,0.09999999 3.04,0.295 3.355,0.51 3.5149999,0.775 3.5149999,1.0849999 3.5149999,1.48 3.1899998,1.7199999 2.835,1.79 3.2749999,1.895 3.78,2.23 3.78,2.715 Z M 2.77,3.22 C 3.115,3.22 3.29,3.06 3.29,2.735 3.29,2.48 3.1899998,2.27 2.98,2.1 2.77,1.93 2.5349998,1.8499999 2.28,1.8499999 H 1.5849999 L 1.885,3.05 c 0.04,0.17 0.04,0.17 0.25,0.17 z M 2.9099998,1.495 C 2.98,1.38 3.0149999,1.265 3.0149999,1.14 3.0149999,0.88 2.915,0.655 2.71,0.47 2.5049999,0.285 2.2749999,0.195 2.01,0.195 H 1.3349999 c -0.05,0 -0.085,0 -0.1049999,0.005 -0.03,0 -0.045,0.01 -0.045,0.025 0,0.005 0,0.02 0.005,0.04 C 1.345,0.9 1.4649999,1.38 1.545,1.6999999 h 0.92 c 0.2149998,0 0.36,-0.07 0.4449998,-0.2049999 z"
                 id="path1" />
            </g>
          </g>
        </g>
        <g
           transform="translate(3.545,4.65)"
           id="g6">
          <g
             class="typst-text"
             transform="scale(1,-1)"
             id="g5">
            <g
               id="g4">
              <path
                 d="m 0.483,1.0815 c 0.0245,0 0.049,0.0175 0.077,0.0525 0.11200005,0.1434999 0.2695,0.2135 0.469,0.2135 0.2555,0 0.385,-0.2100001 0.385,-0.6265001 0,-0.203 -0.035,-0.3535 -0.1015,-0.45149998 C 1.218,0.1365 1.0885,0.07 0.92050004,0.07 c -0.245,0 -0.44100001,0.14000001 -0.51800004,0.32200002 0.112,0 0.18900004,0.0735 0.18900004,0.18550003 C 0.59150004,0.68950003 0.518,0.7665 0.40600002,0.7665 0.29050002,0.749 0.2205,0.693 0.2205,0.56700003 0.2205,0.3815 0.294,0.2275 0.441,0.105 0.57750005,-0.0105 0.74200004,-0.07 0.9275,-0.07 1.1550001,-0.07 1.3510001,0.007 1.519,0.154 1.687,0.301 1.7675,0.48650002 1.7675,0.707 1.7675,0.92050004 1.694,1.099 1.554,1.2495 1.414,1.4000001 1.2390001,1.4735 1.0325,1.4735 0.847,1.4735 0.693,1.421 0.56350005,1.3195001 v 0.6055 C 0.67550004,1.8970001 0.78400004,1.883 0.8855,1.883 c 0.1365001,0 0.266,0.028 0.3885,0.0875 0.098,0.0455 0.3465001,0.189 0.3465001,0.2905001 0,0.042 -0.021,0.063 -0.0595,0.063 -0.1925,-0.0735 -0.3744999,-0.112 -0.5424999,-0.112 C 0.847,2.2120001 0.679,2.2435 0.5215,2.3065 0.497,2.317 0.483,2.324 0.4725,2.324 0.434,2.324 0.413,2.289 0.413,2.2154999 V 1.197 c 0,-0.07 0.0035,-0.1155 0.07,-0.1155 z"
                 id="path4" />
            </g>
          </g>
        </g>
      </g>
    </g>
    <g
       transform="translate(58.205961,103.85003)"
       id="g21">
      <g
         transform="matrix(0.352778,0,0,0.352778,-0.988924,-0.820208)"
         id="g20">
        <g
           transform="translate(0,3.415)"
           id="g11">
          <g
             class="typst-text"
             transform="scale(1,-1)"
             id="g10">
            <g
               id="g9">
              <path
                 d="m 3.78,2.715 c 0,0.4549998 -0.45,0.7 -0.94,0.7 H 1.18 c -0.1150001,0 -0.165,-0.005 -0.165,-0.1200002 0,-0.08 0.1,-0.075 0.16,-0.075 0.1499999,-0.005 0.24,-0.015 0.2649999,-0.02 0.025,-0.005 0.035,-0.02 0.035,-0.045 0,-0.01 -0.005,-0.04 -0.02,-0.09 L 0.79499996,0.41 C 0.77,0.29999998 0.71999997,0.235 0.645,0.21 0.61,0.19999999 0.52,0.195 0.36499998,0.195 0.26,0.195 0.21,0.155 0.21,0.075 0.21,0.025 0.26,0 0.36499998,0 H 2.1299999 C 2.455,0 2.7549999,0.09999999 3.04,0.295 3.355,0.51 3.5149999,0.775 3.5149999,1.0849999 3.5149999,1.48 3.1899998,1.7199999 2.835,1.79 3.2749999,1.895 3.78,2.23 3.78,2.715 Z M 2.77,3.22 C 3.115,3.22 3.29,3.06 3.29,2.735 3.29,2.48 3.1899998,2.27 2.98,2.1 2.77,1.93 2.5349998,1.8499999 2.28,1.8499999 H 1.5849999 L 1.885,3.05 c 0.04,0.17 0.04,0.17 0.25,0.17 z M 2.9099998,1.495 C 2.98,1.38 3.0149999,1.265 3.0149999,1.14 3.0149999,0.88 2.915,0.655 2.71,0.47 2.5049999,0.285 2.2749999,0.195 2.01,0.195 H 1.3349999 c -0.05,0 -0.085,0 -0.1049999,0.005 -0.03,0 -0.045,0.01 -0.045,0.025 0,0.005 0,0.02 0.005,0.04 C 1.345,0.9 1.4649999,1.38 1.545,1.6999999 h 0.92 c 0.2149998,0 0.36,-0.07 0.4449998,-0.2049999 z"
                 id="path9" />
            </g>
          </g>
        </g>
        <g
           transform="translate(3.545,4.65)"
           id="g19">
          <g
             class="typst-text"
             transform="scale(1,-1)"
             id="g18">
            <g
               id="g17">
              <path
                 d="M 1.3790001,2.359 C 1.3405,2.359 1.3055,2.3415 1.2775,2.3065 L 0.1365,0.7105 V 0.56700003 H 1.148 V 0.2975 C 1.148,0.238 1.1375,0.19600001 1.113,0.17850001 1.0885,0.161 1.0115,0.1505 0.8855,0.1505 H 0.777 V 0 L 1.3055,0.014 1.8410001,0 v 0.1505 h -0.105 C 1.6065,0.1505 1.5295,0.161 1.505,0.17850001 1.4805001,0.19600001 1.47,0.238 1.47,0.2975 V 0.56700003 H 1.8515 V 0.721 H 1.47 v 1.526 c 0,0.084 -0.0105,0.112 -0.091,0.112 z M 1.1725,1.9285 V 0.721 h -0.868 z"
                 id="path17" />
            </g>
          </g>
        </g>
      </g>
    </g>
    <g
       transform="translate(99.401003,74.900895)"
       id="g29">
      <g
         transform="matrix(0.352778,0,0,0.352778,-0.979664,-0.832556)"
         id="g28">
        <g
           transform="translate(0,3.415)"
           id="g24">
          <g
             class="typst-text"
             transform="scale(1,-1)"
             id="g23">
            <g
               id="g22">
              <path
                 d="m 3.78,2.715 c 0,0.4549998 -0.45,0.7 -0.94,0.7 H 1.18 c -0.1150001,0 -0.165,-0.005 -0.165,-0.1200002 0,-0.08 0.1,-0.075 0.16,-0.075 0.1499999,-0.005 0.24,-0.015 0.2649999,-0.02 0.025,-0.005 0.035,-0.02 0.035,-0.045 0,-0.01 -0.005,-0.04 -0.02,-0.09 L 0.79499996,0.41 C 0.77,0.29999998 0.71999997,0.235 0.645,0.21 0.61,0.19999999 0.52,0.195 0.36499998,0.195 0.26,0.195 0.21,0.155 0.21,0.075 0.21,0.025 0.26,0 0.36499998,0 H 2.1299999 C 2.455,0 2.7549999,0.09999999 3.04,0.295 3.355,0.51 3.5149999,0.775 3.5149999,1.0849999 3.5149999,1.48 3.1899998,1.7199999 2.835,1.79 3.2749999,1.895 3.78,2.23 3.78,2.715 Z M 2.77,3.22 C 3.115,3.22 3.29,3.06 3.29,2.735 3.29,2.48 3.1899998,2.27 2.98,2.1 2.77,1.93 2.5349998,1.8499999 2.28,1.8499999 H 1.5849999 L 1.885,3.05 c 0.04,0.17 0.04,0.17 0.25,0.17 z M 2.9099998,1.495 C 2.98,1.38 3.0149999,1.265 3.0149999,1.14 3.0149999,0.88 2.915,0.655 2.71,0.47 2.5049999,0.285 2.2749999,0.195 2.01,0.195 H 1.3349999 c -0.05,0 -0.085,0 -0.1049999,0.005 -0.03,0 -0.045,0.01 -0.045,0.025 0,0.005 0,0.02 0.005,0.04 C 1.345,0.9 1.4649999,1.38 1.545,1.6999999 h 0.92 c 0.2149998,0 0.36,-0.07 0.4449998,-0.2049999 z"
                 id="path21" />
            </g>
          </g>
        </g>
        <g
           transform="translate(3.545,4.65)"
           id="g27">
          <g
             class="typst-text"
             transform="scale(1,-1)"
             id="g26">
            <g
               id="g25">
              <path
                 d="M 1.2355001,1.2355001 C 1.47,1.33 1.694,1.5365001 1.694,1.8340001 1.694,1.9915 1.61,2.1175 1.4455,2.2085001 1.309,2.2855 1.1550001,2.3240001 0.9835,2.3240001 0.81200004,2.3240001 0.66150004,2.289 0.532,2.2155 0.3745,2.128 0.294,2.0055 0.294,1.848 c 0,-0.133 0.0665,-0.1994999 0.196,-0.1994999 0.1085,0 0.189,0.084 0.189,0.1925 C 0.679,1.9495001 0.623,2.0125 0.5145,2.03 0.616,2.1385 0.7665,2.1945 0.97300005,2.1945 1.2005,2.1945 1.33,2.058 1.33,1.8340001 1.33,1.6695 1.2845,1.5365001 1.197,1.4315001 1.099,1.316 1.029,1.2985001 0.82600003,1.2845 0.7315,1.2775 0.6685,1.288 0.6685,1.218 c 0,-0.042 0.035,-0.063 0.10150004,-0.063 H 0.9555 c 0.301,0 0.4480001,-0.2275001 0.4480001,-0.5425001 0,-0.308 -0.14,-0.5425 -0.4340001,-0.5425 -0.25549995,0 -0.441,0.07 -0.55649998,0.21350002 C 0.5355,0.2975 0.5985,0.3675 0.5985,0.49 0.5985,0.60550004 0.511,0.693 0.3955,0.693 0.259,0.693 0.18900001,0.623 0.18900001,0.47950003 0.18900001,0.301 0.28,0.1575 0.45850003,0.056 0.609,-0.028 0.7805,-0.07 0.97650003,-0.07 1.19,-0.07 1.3755001,-0.0105 1.5365001,0.1085 1.7115,0.238 1.799,0.40600002 1.799,0.6125 1.799,0.938 1.5155001,1.1620001 1.2355001,1.2355001 Z"
                 id="path24" />
            </g>
          </g>
        </g>
      </g>
    </g>
    <g
       transform="translate(83.620984,74.900541)"
       id="g37">
      <g
         transform="matrix(0.352778,0,0,0.352778,-0.974725,-0.820208)"
         id="g36">
        <g
           transform="translate(0,3.415)"
           id="g32">
          <g
             class="typst-text"
             transform="scale(1,-1)"
             id="g31">
            <g
               id="g30">
              <path
                 d="m 3.78,2.715 c 0,0.4549998 -0.45,0.7 -0.94,0.7 H 1.18 c -0.1150001,0 -0.165,-0.005 -0.165,-0.1200002 0,-0.08 0.1,-0.075 0.16,-0.075 0.1499999,-0.005 0.24,-0.015 0.2649999,-0.02 0.025,-0.005 0.035,-0.02 0.035,-0.045 0,-0.01 -0.005,-0.04 -0.02,-0.09 L 0.79499996,0.41 C 0.77,0.29999998 0.71999997,0.235 0.645,0.21 0.61,0.19999999 0.52,0.195 0.36499998,0.195 0.26,0.195 0.21,0.155 0.21,0.075 0.21,0.025 0.26,0 0.36499998,0 H 2.1299999 C 2.455,0 2.7549999,0.09999999 3.04,0.295 3.355,0.51 3.5149999,0.775 3.5149999,1.0849999 3.5149999,1.48 3.1899998,1.7199999 2.835,1.79 3.2749999,1.895 3.78,2.23 3.78,2.715 Z M 2.77,3.22 C 3.115,3.22 3.29,3.06 3.29,2.735 3.29,2.48 3.1899998,2.27 2.98,2.1 2.77,1.93 2.5349998,1.8499999 2.28,1.8499999 H 1.5849999 L 1.885,3.05 c 0.04,0.17 0.04,0.17 0.25,0.17 z M 2.9099998,1.495 C 2.98,1.38 3.0149999,1.265 3.0149999,1.14 3.0149999,0.88 2.915,0.655 2.71,0.47 2.5049999,0.285 2.2749999,0.195 2.01,0.195 H 1.3349999 c -0.05,0 -0.085,0 -0.1049999,0.005 -0.03,0 -0.045,0.01 -0.045,0.025 0,0.005 0,0.02 0.005,0.04 C 1.345,0.9 1.4649999,1.38 1.545,1.6999999 h 0.92 c 0.2149998,0 0.36,-0.07 0.4449998,-0.2049999 z"
                 id="path29" />
            </g>
          </g>
        </g>
        <g
           transform="translate(3.545,4.65)"
           id="g35">
          <g
             class="typst-text"
             transform="scale(1,-1)"
             id="g34">
            <g
               id="g33">
              <path
                 d="m 0.4165,1.4840001 c 0.112,0 0.196,0.084 0.196,0.196 0,0.126 -0.0665,0.1925 -0.196,0.1959999 0.077,0.1645002 0.252,0.2975 0.4795,0.2975 0.308,0 0.5110001,-0.2309999 0.5110001,-0.539 0,-0.168 -0.0595,-0.329 -0.1820001,-0.4865 C 1.1655,1.0675 1.12,1.0115 1.0885,0.98 L 0.259,0.1575 C 0.21350001,0.1155 0.2205,0.105 0.2205,0 h 1.442 L 1.771,0.658 H 1.6240001 c -0.0245,-0.18549997 -0.0525,-0.29399998 -0.084,-0.3185 C 1.5225,0.329 1.414,0.322 1.2075,0.322 H 0.6125 C 0.847,0.5285 1.064,0.71400005 1.2705001,0.87850004 1.4280001,1.001 1.5400001,1.1095 1.61,1.204 1.715,1.3405 1.7675,1.4840001 1.7675,1.6345 1.7675,1.8515 1.6835,2.023 1.5120001,2.1490002 1.3615,2.2645001 1.1725,2.3240001 0.94850004,2.3240001 c -0.1925,0 -0.357,-0.056 -0.50050004,-0.168 C 0.2975,2.0335 0.2205,1.8795 0.2205,1.6905 c 0,-0.1189999 0.0875,-0.2064999 0.196,-0.2064999 z"
                 id="path32" />
            </g>
          </g>
        </g>
      </g>
    </g>
    <g
       transform="translate(55.924347,79.343897)"
       id="g45">
      <g
         transform="matrix(0.352778,0,0,0.352778,-0.954352,-0.820208)"
         id="g44">
        <g
           transform="translate(0,3.415)"
           id="g40">
          <g
             class="typst-text"
             transform="scale(1,-1)"
             id="g39">
            <g
               id="g38">
              <path
                 d="m 3.78,2.715 c 0,0.4549998 -0.45,0.7 -0.94,0.7 H 1.18 c -0.1150001,0 -0.165,-0.005 -0.165,-0.1200002 0,-0.08 0.1,-0.075 0.16,-0.075 0.1499999,-0.005 0.24,-0.015 0.2649999,-0.02 0.025,-0.005 0.035,-0.02 0.035,-0.045 0,-0.01 -0.005,-0.04 -0.02,-0.09 L 0.79499996,0.41 C 0.77,0.29999998 0.71999997,0.235 0.645,0.21 0.61,0.19999999 0.52,0.195 0.36499998,0.195 0.26,0.195 0.21,0.155 0.21,0.075 0.21,0.025 0.26,0 0.36499998,0 H 2.1299999 C 2.455,0 2.7549999,0.09999999 3.04,0.295 3.355,0.51 3.5149999,0.775 3.5149999,1.0849999 3.5149999,1.48 3.1899998,1.7199999 2.835,1.79 3.2749999,1.895 3.78,2.23 3.78,2.715 Z M 2.77,3.22 C 3.115,3.22 3.29,3.06 3.29,2.735 3.29,2.48 3.1899998,2.27 2.98,2.1 2.77,1.93 2.5349998,1.8499999 2.28,1.8499999 H 1.5849999 L 1.885,3.05 c 0.04,0.17 0.04,0.17 0.25,0.17 z M 2.9099998,1.495 C 2.98,1.38 3.0149999,1.265 3.0149999,1.14 3.0149999,0.88 2.915,0.655 2.71,0.47 2.5049999,0.285 2.2749999,0.195 2.01,0.195 H 1.3349999 c -0.05,0 -0.085,0 -0.1049999,0.005 -0.03,0 -0.045,0.01 -0.045,0.025 0,0.005 0,0.02 0.005,0.04 C 1.345,0.9 1.4649999,1.38 1.545,1.6999999 h 0.92 c 0.2149998,0 0.36,-0.07 0.4449998,-0.2049999 z"
                 id="path37" />
            </g>
          </g>
        </g>
        <g
           transform="translate(3.545,4.65)"
           id="g43">
          <g
             class="typst-text"
             transform="scale(1,-1)"
             id="g42">
            <g
               id="g41">
              <path
                 d="M 1.0605,2.3240001 C 0.91,2.177 0.68600005,2.1035001 0.3815,2.1035001 v -0.154 c 0.2065,0 0.371,0.0315 0.49700004,0.091 V 0.2975 c 0,-0.0455 -0.0035,-0.0735 -0.014,-0.0875 C 0.847,0.17150001 0.74200004,0.1505 0.5495,0.1505 H 0.40600002 V 0 L 1.029,0.014 1.6555,0 V 0.1505 H 1.5120001 c -0.1925,0 -0.2975,0.021 -0.3185001,0.0595 C 1.1865,0.224 1.183,0.252 1.183,0.2975 v 1.9145001 c 0,0.0945 -0.014,0.112 -0.1225,0.112 z"
                 id="path40" />
            </g>
          </g>
        </g>
      </g>
    </g>
    <g
       transform="translate(72.332317,87.32206)"
       id="g50">
      <g
         transform="matrix(0.352778,0,0,0.352778,-0.66675,-0.573264)"
         id="g49">
        <g
           transform="translate(0,3.415)"
           id="g48">
          <g
             class="typst-text"
             transform="scale(1,-1)"
             id="g47">
            <g
               id="g46">
              <path
                 d="M 0.685,0.015 C 0.775,0.015 1.0849999,0 1.18,0 c 0.075,0 0.11,0.04 0.11,0.11499999 0,0.045 -0.03,0.075 -0.095,0.08 -0.1449999,0.005 -0.21499994,0.055 -0.21499994,0.15 0,0.045 0.045,0.14499998 0.14000004,0.295 0.135,0.225 0.23,0.39000001 0.295,0.50000001 H 2.63 C 2.63,1.105 2.635,1.035 2.65,0.92499994 2.685,0.56 2.705,0.35999998 2.705,0.33499998 2.705,0.24 2.595,0.195 2.37,0.195 2.275,0.195 2.23,0.155 2.23,0.075 2.23,0.025 2.26,0 2.32,0 2.44,0 2.82,0.015 2.9399998,0.015 3.04,0.015 3.395,0 3.495,0 3.57,0 3.605,0.04 3.605,0.12 3.605,0.17 3.56,0.195 3.47,0.195 3.33,0.195 3.245,0.205 3.22,0.22 3.195,0.235 3.175,0.28 3.17,0.355 l -0.3,3.09 C 2.855,3.54 2.86,3.58 2.7549999,3.58 2.695,3.58 2.645,3.55 2.61,3.485 L 0.89,0.59999996 C 0.74,0.35 0.53999996,0.21499999 0.295,0.195 0.215,0.19 0.175,0.15 0.175,0.075 0.175,0.025 0.205,0 0.26,0 0.34,0 0.60499996,0.015 0.685,0.015 Z M 2.46,2.885 2.61,1.3349999 H 1.535 Z"
                 id="path45" />
            </g>
          </g>
        </g>
      </g>
    </g>
    <g
       transform="translate(45.533416,107.86447)"
       id="g55">
      <g
         transform="matrix(0.352778,0,0,0.352778,-0.635882,-0.582965)"
         id="g54">
        <g
           transform="translate(0,3.415)"
           id="g53">
          <g
             class="typst-text"
             transform="scale(1,-1)"
             id="g52">
            <g
               id="g51">
              <path
                 d="m 1.3349999,0.125 c 0,0.23999998 -0.09,0.60999995 -0.265,1.105 C 0.905,1.675 0.825,2.02 0.825,2.27 0.825,2.8799999 1.2049999,3.375 1.8,3.375 2.395,3.375 2.78,2.8799999 2.78,2.27 2.78,2.0249999 2.685,1.64 2.5,1.125 2.345,0.685 2.27,0.35 2.27,0.125 2.27,0.005 2.29,0 2.415,0 H 3.22 L 3.3899999,0.84 H 3.225 C 3.195,0.68 3.165,0.555 3.135,0.465 3.115,0.41 3.07,0.38 3.0049999,0.36499998 c -0.015,-0.005 -0.075,-0.005 -0.1799999,-0.005 H 2.455 C 2.5049999,0.55 2.6499999,0.82 2.8899999,1.17 3.1799998,1.605 3.3249998,1.9699999 3.3249998,2.2649999 3.3249998,2.6399999 3.1599998,2.95 2.835,3.195 2.54,3.415 2.195,3.5249999 1.805,3.5249999 1.41,3.5249999 1.0649999,3.415 0.77,3.195 0.445,2.955 0.28,2.645 0.28,2.2649999 0.28,1.9749999 0.42499998,1.61 0.715,1.17 0.905,0.89 1.0699999,0.645 1.15,0.35999998 H 0.78 c -0.17,0 -0.27,0.025 -0.29500002,0.07 C 0.435,0.59 0.39999998,0.72499996 0.38,0.84 H 0.21499999 L 0.385,0 h 0.8099999 c 0.1150001,0 0.14,0.01 0.14,0.125 z"
                 id="path50" />
            </g>
          </g>
        </g>
      </g>
    </g>
  </g>
  <g
     id="layer1"
     transform="translate(-44.085336,-66.938189)">
    <path
       style="fill:none;stroke:#000000;stroke-width:0.0917497;stroke-dasharray:none;stroke-dashoffset:0"
       d="m 49.754855,79.247794 c 2.726557,-5.257985 7.050911,-9.121293 16.024791,-8.947554 8.973867,0.17374 21.633452,0.781826 24.678156,2.519211 3.044717,1.737391 9.614868,3.387912 11.617968,17.634505 2.00308,14.246584 -13.300564,16.418314 -25.158902,16.244594 -11.85834,-0.17375 -16.834013,-2.33439 -24.517913,-8.86069 -8.176288,-6.944502 -5.563945,-12.95931 -2.6441,-18.590066 z"
       id="path8" />
    <g
       id="g16">
      <path
         style="fill:none;stroke:#000000;stroke-width:0.1"
         d="M 82.686034,66.978571 44.119643,103.35754"
         id="path2" />
      <path
         style="fill:none;stroke:#000000;stroke-width:0.1"
         d="M 58.128021,90.143694 80.882912,108.9817"
         id="path3" />
      <path
         style="fill:#e3d7f4;stroke:#000000;stroke-width:0.0790001;stroke-dasharray:none;stroke-dashoffset:0"
         d="M 69.505467,99.562696 105,83.011607"
         id="path10" />
      <path
         style="fill:#e3d7f4;stroke:#000000;stroke-width:0.0790001;stroke-dasharray:none;stroke-dashoffset:0"
         d="m 89.750891,90.105179 2.367857,-23.16298"
         id="path11" />
      <rect
         style="fill:none;stroke:#000000;stroke-width:0.1"
         id="rect1"
         width="60.830357"
         height="41.903126"
         x="44.169643"
         y="67.028572" />
    </g>
  </g>
</svg>
