<?xml version="1.0" encoding="UTF-8" standalone="no"?>
<!-- Created with Inkscape (http://www.inkscape.org/) -->

<svg
   width="30.446493mm"
   height="19.680355mm"
   viewBox="0 0 30.446493 19.680355"
   version="1.1"
   id="svg1"
   xmlns="http://www.w3.org/2000/svg"
   xmlns:svg="http://www.w3.org/2000/svg">
  <defs
     id="defs1" />
  <g
     id="layer1"
     transform="translate(-57.469294,-27.908929)">
    <rect
       style="fill:none;stroke:#004455;stroke-width:0.0701708"
       id="rect1"
       width="30.311081"
       height="19.610186"
       x="57.542225"
       y="27.944012" />
    <path
       style="fill:none;stroke:#004455;stroke-width:0.1"
       d="M 72.697762,27.944011 57.507139,45.535714"
       id="path1" />
    <path
       style="fill:none;stroke:#004455;stroke-width:0.1"
       d="M 65.102451,36.739861 72.697762,47.5542"
       id="path2" />
    <path
       style="fill:none;stroke:#004455;stroke-width:0.1"
       d="M 70.161694,43.943301 87.888391,32.330358"
       id="path3" />
    <path
       style="fill:none;stroke:#004455;stroke-width:0.1"
       d="M 78.184821,27.944011 74.213703,41.288787"
       id="path4" />
    <path
       style="fill:none;stroke:#004455;stroke-width:0.0988452"
       d="m 61.066419,35.867886 c 0.94834,-4.540337 3.580142,-5.499103 11.6979,-5.791091 8.117761,-0.291988 12.905156,5.596431 12.780267,9.68426 -0.124887,4.08783 -6.202801,6.667054 -9.366646,6.180408 -3.163843,-0.486645 -3.49688,1.703262 -9.866198,-1.605931 -6.369321,-3.309196 -5.991215,-4.89656 -5.245323,-8.467646 z"
       id="path5" />
    <path
       style="fill:#ffd5d5;stroke:#004455;stroke-width:0.0472441;stroke-dasharray:none"
       d="m 231.82353,153.47963 c -2.71301,-4.11099 -2.91064,-7.91924 -0.89547,-17.25544 1.05464,-4.88608 2.13471,-7.82197 3.85332,-10.47419 4.4132,-6.81062 12.2328,-9.8577 28.72236,-11.1923 1.37706,-0.11145 2.68207,-0.18409 2.90003,-0.16142 0.38726,0.0403 0.009,0.48929 -16.60367,19.72872 -9.34997,10.82812 -17.10207,19.79083 -17.22688,19.91713 -0.2198,0.22242 -0.24335,0.20475 -0.74969,-0.5625 z"
       id="path11"
       transform="scale(0.26458333)" />
    <path
       style="fill:#d7f4e3;stroke:#004455;stroke-width:0.0472441;stroke-dasharray:none"
       d="m 255.87975,152.38343 c -5.1499,-7.334 -9.38036,-13.38773 -9.40102,-13.45274 -0.0207,-0.065 4.72378,-5.63069 10.54319,-12.36819 l 10.58076,-12.25 0.94866,-0.0815 c 2.35355,-0.20219 8.63497,-0.38349 10.63616,-0.307 3.87445,0.14811 7.52855,0.6481 11.14671,1.52521 l 1.83422,0.44464 -0.19065,0.64683 c -3.04397,10.32775 -11.70503,39.29489 -11.76705,39.35522 -0.0763,0.0743 -13.43028,8.84612 -14.52663,9.54216 l -0.4409,0.27991 z"
       id="path12"
       transform="scale(0.26458333)" />
    <path
       style="fill:#dbe3de;stroke:#004455;stroke-width:0.0472441;stroke-dasharray:none"
       d="m 281.49205,153.6 c 3.7044,-12.50424 11.12776,-37.42564 11.1609,-37.46891 0.0238,-0.031 0.61782,0.12996 1.32013,0.35776 4.411,1.43072 8.9852,3.71115 12.76018,6.36148 3.36654,2.36358 7.17296,5.98406 9.36272,8.90537 l 0.33222,0.4432 -17.63658,11.5568 c -9.70012,6.35624 -17.6799,11.57367 -17.73285,11.5943 -0.0529,0.0206 0.14203,-0.76688 0.43328,-1.75 z"
       id="path13"
       transform="scale(0.26458333)" />
    <path
       style="fill:#d5fff6;stroke:#004455;stroke-width:0.0472441;stroke-dasharray:none"
       d="m 268.67558,170.59375 c -1.45888,-2.07969 -2.75582,-3.93011 -2.88209,-4.11205 l -0.22958,-0.33081 25.46805,-16.67934 c 14.00742,-9.17364 25.53451,-16.71791 25.61576,-16.76505 0.0939,-0.0545 0.46223,0.38462 1.01079,1.20498 4.95076,7.4037 6.60648,15.27685 4.46121,21.21352 -2.17315,6.01384 -8.06437,11.44336 -16.39205,15.10741 -3.07989,1.3551 -7.03058,2.50468 -10.41517,3.03063 -2.38726,0.37097 -5.43211,0.39479 -8.06065,0.0631 -2.58753,-0.32655 -4.88253,-0.23194 -8.38401,0.34562 -3.30915,0.54585 -4.71779,0.70328 -6.29262,0.70328 h -1.24712 z"
       id="path14"
       transform="scale(0.26458333)" />
    <path
       style="fill:#eef4d7;stroke:#004455;stroke-width:0.0472441;stroke-dasharray:none"
       d="m 268.16323,173.99435 c -4.53559,-0.79891 -9.78087,-2.78056 -16.66323,-6.2953 -4.94811,-2.52695 -8.76585,-4.74538 -11.875,-6.90038 -2.29608,-1.59144 -3.47346,-2.56578 -5.29053,-4.37814 l -1.66552,-1.6612 1.60308,-1.84842 c 0.88169,-1.01662 3.87312,-4.4781 6.64763,-7.69216 2.7745,-3.21406 5.08073,-5.84171 5.12494,-5.83922 0.0603,0.003 18.77185,26.5877 23.80792,33.82496 l 0.72752,1.04551 -0.54002,-0.0101 c -0.29701,-0.006 -1.14157,-0.11605 -1.87679,-0.24555 z"
       id="path15"
       transform="scale(0.26458333)" />
  </g>
  <g
     id="layer2"
     transform="translate(-57.469294,-27.908929)">
    <g
       transform="translate(86.932156,46.629797)"
       id="g29">
      <g
         transform="matrix(0.352778,0,0,0.352778,-0.381529,-0.349779)"
         id="g28">
        <g
           transform="translate(0,2.049)"
           id="g27">
          <g
             class="typst-text"
             transform="scale(1,-1)"
             id="g26">
            <g
               id="g25">
              <path
                 d="M 0.801,0.075 C 0.801,0.219 0.747,0.441 0.642,0.73800004 0.543,1.005 0.495,1.212 0.495,1.362 c 0,0.366 0.228,0.663 0.585,0.663 0.357,0 0.588,-0.297 0.588,-0.663 C 1.668,1.215 1.611,0.984 1.5,0.675 1.4070001,0.411 1.362,0.21000001 1.362,0.075 1.362,0.003 1.374,0 1.449,0 H 1.932 L 2.034,0.504 H 1.935 C 1.917,0.408 1.899,0.333 1.881,0.279 1.869,0.246 1.842,0.228 1.803,0.219 1.794,0.216 1.758,0.216 1.695,0.216 H 1.473 C 1.503,0.33 1.59,0.492 1.734,0.702 1.908,0.963 1.995,1.182 1.995,1.359 1.995,1.584 1.896,1.77 1.701,1.917 1.524,2.049 1.317,2.115 1.0830001,2.115 0.846,2.115 0.639,2.049 0.462,1.917 0.267,1.773 0.168,1.587 0.168,1.359 0.168,1.1850001 0.255,0.966 0.429,0.702 0.543,0.534 0.642,0.387 0.69,0.216 H 0.468 C 0.366,0.216 0.306,0.231 0.291,0.258 0.261,0.354 0.24,0.435 0.228,0.504 H 0.129 L 0.231,0 h 0.486 c 0.069,0 0.084,0.006 0.084,0.075 z"
                 id="path24" />
            </g>
          </g>
        </g>
      </g>
    </g>
    <g
       transform="translate(61.138442,32.457077)"
       id="g45">
      <g
         transform="matrix(0.352778,0,0,0.352778,-0.572611,-0.492125)"
         id="g44">
        <g
           transform="translate(0,2.049)"
           id="g40">
          <g
             class="typst-text"
             transform="scale(1,-1)"
             id="g39">
            <g
               id="g38">
              <path
                 d="M 2.2680001,1.6290001 C 2.2680001,1.9020001 1.998,2.049 1.704,2.049 H 0.708 C 0.639,2.049 0.609,2.046 0.609,1.977 0.609,1.929 0.669,1.932 0.705,1.932 0.795,1.929 0.84900004,1.923 0.864,1.92 0.879,1.917 0.885,1.908 0.885,1.893 0.885,1.887 0.882,1.869 0.873,1.839 L 0.477,0.246 C 0.462,0.18 0.432,0.141 0.387,0.126 0.366,0.12000001 0.312,0.117 0.219,0.117 0.156,0.117 0.126,0.093 0.126,0.045 0.126,0.015 0.156,0 0.219,0 h 1.059 c 0.195,0 0.375,0.06 0.546,0.177 0.189,0.129 0.285,0.288 0.285,0.474 0,0.237 -0.195,0.3810001 -0.408,0.423 0.264,0.063 0.5670001,0.264 0.5670001,0.5550001 z M 1.6620001,1.932 C 1.869,1.932 1.974,1.836 1.974,1.641 1.974,1.488 1.914,1.362 1.788,1.26 1.6620001,1.158 1.521,1.11 1.368,1.11 H 0.95100003 L 1.131,1.83 c 0.024,0.102 0.024,0.102 0.15,0.102 z M 1.746,0.897 C 1.788,0.828 1.809,0.759 1.809,0.684 1.809,0.528 1.7490001,0.393 1.626,0.282 1.503,0.171 1.365,0.117 1.206,0.117 H 0.801 c -0.03,0 -0.051,0 -0.063,0.003 -0.018,0 -0.027,0.006 -0.027,0.015 0,0.003 0,0.012 0.003,0.024 0.093,0.381 0.165,0.669 0.213,0.861 h 0.552 c 0.129,0 0.216,-0.042 0.267,-0.123 z"
                 id="path37" />
            </g>
          </g>
        </g>
        <g
           transform="translate(2.127,2.79)"
           id="g43">
          <g
             class="typst-text"
             transform="scale(1,-1)"
             id="g42">
            <g
               id="g41">
              <path
                 d="M 0.63629997,1.3944 C 0.546,1.3061999 0.4116,1.2621 0.22889999,1.2621 V 1.1697 c 0.12389999,0 0.22260001,0.0189 0.29819998,0.0546 V 0.1785 C 0.52709997,0.1512 0.525,0.1344 0.5187,0.126 0.5082,0.1029 0.4452,0.09029999 0.3297,0.09029999 H 0.2436 V 0 L 0.6174,0.0084 0.99329996,0 V 0.09029999 H 0.9072 C 0.79169995,0.09029999 0.7287,0.1029 0.7161,0.126 0.7119,0.1344 0.7098,0.1512 0.7098,0.1785 v 1.1486999 c 0,0.0567 -0.0084,0.0672 -0.0735,0.0672 z"
                 id="path40" />
            </g>
          </g>
        </g>
      </g>
    </g>
    <g
       transform="translate(73.201808,32.448876)"
       id="g53">
      <g
         transform="matrix(0.352778,0,0,0.352778,-0.584835,-0.492125)"
         id="g52">
        <g
           transform="translate(0,2.049)"
           id="g48">
          <g
             class="typst-text"
             transform="scale(1,-1)"
             id="g47">
            <g
               id="g46">
              <path
                 d="M 2.2680001,1.6290001 C 2.2680001,1.9020001 1.998,2.049 1.704,2.049 H 0.708 C 0.639,2.049 0.609,2.046 0.609,1.977 0.609,1.929 0.669,1.932 0.705,1.932 0.795,1.929 0.84900004,1.923 0.864,1.92 0.879,1.917 0.885,1.908 0.885,1.893 0.885,1.887 0.882,1.869 0.873,1.839 L 0.477,0.246 C 0.462,0.18 0.432,0.141 0.387,0.126 0.366,0.12000001 0.312,0.117 0.219,0.117 0.156,0.117 0.126,0.093 0.126,0.045 0.126,0.015 0.156,0 0.219,0 h 1.059 c 0.195,0 0.375,0.06 0.546,0.177 0.189,0.129 0.285,0.288 0.285,0.474 0,0.237 -0.195,0.3810001 -0.408,0.423 0.264,0.063 0.5670001,0.264 0.5670001,0.5550001 z M 1.6620001,1.932 C 1.869,1.932 1.974,1.836 1.974,1.641 1.974,1.488 1.914,1.362 1.788,1.26 1.6620001,1.158 1.521,1.11 1.368,1.11 H 0.95100003 L 1.131,1.83 c 0.024,0.102 0.024,0.102 0.15,0.102 z M 1.746,0.897 C 1.788,0.828 1.809,0.759 1.809,0.684 1.809,0.528 1.7490001,0.393 1.626,0.282 1.503,0.171 1.365,0.117 1.206,0.117 H 0.801 c -0.03,0 -0.051,0 -0.063,0.003 -0.018,0 -0.027,0.006 -0.027,0.015 0,0.003 0,0.012 0.003,0.024 0.093,0.381 0.165,0.669 0.213,0.861 h 0.552 c 0.129,0 0.216,-0.042 0.267,-0.123 z"
                 id="path45" />
            </g>
          </g>
        </g>
        <g
           transform="translate(2.127,2.79)"
           id="g51">
          <g
             class="typst-text"
             transform="scale(1,-1)"
             id="g50">
            <g
               id="g49">
              <path
                 d="m 0.2499,0.8904 c 0.0672,0 0.11759998,0.0504 0.11759998,0.1176 0,0.0756 -0.0399,0.1155 -0.11759998,0.1176 0.0462,0.0987 0.15119998,0.1784999 0.2877,0.1784999 0.18479995,0 0.30659996,-0.1386 0.30659996,-0.32339994 C 0.84419996,0.8799 0.8085,0.7833 0.73499995,0.6888 0.6993,0.64049995 0.672,0.6069 0.65309995,0.588 L 0.1554,0.0945 C 0.1281,0.0693 0.13229999,0.063 0.13229999,0 H 0.99749994 L 1.0626,0.39479998 H 0.9744 C 0.9597,0.2835 0.94289994,0.21839999 0.92399997,0.20369999 c -0.0105,-0.0063 -0.0756,-0.0105 -0.19949997,-0.0105 H 0.36749998 C 0.5082,0.3171 0.63839996,0.42839998 0.76229995,0.52709997 0.85679996,0.6006 0.92399997,0.66569996 0.96599996,0.72239995 1.0289999,0.80429995 1.0604999,0.8904 1.0604999,0.98069996 1.0604999,1.1108999 1.0101,1.2138 0.9072,1.2894 0.8169,1.3587 0.7035,1.3944 0.56909996,1.3944 0.4536,1.3944 0.35489997,1.3607999 0.2688,1.2936 0.1785,1.2200999 0.13229999,1.1277 0.13229999,1.0143 c 0,-0.0714001 0.0525,-0.1239 0.11760001,-0.1239 z"
                 id="path48" />
            </g>
          </g>
        </g>
      </g>
    </g>
    <g
       transform="translate(82.092661,31.733442)"
       id="g61">
      <g
         transform="matrix(0.352778,0,0,0.352778,-0.587798,-0.499533)"
         id="g60">
        <g
           transform="translate(0,2.049)"
           id="g56">
          <g
             class="typst-text"
             transform="scale(1,-1)"
             id="g55">
            <g
               id="g54">
              <path
                 d="M 2.2680001,1.6290001 C 2.2680001,1.9020001 1.998,2.049 1.704,2.049 H 0.708 C 0.639,2.049 0.609,2.046 0.609,1.977 0.609,1.929 0.669,1.932 0.705,1.932 0.795,1.929 0.84900004,1.923 0.864,1.92 0.879,1.917 0.885,1.908 0.885,1.893 0.885,1.887 0.882,1.869 0.873,1.839 L 0.477,0.246 C 0.462,0.18 0.432,0.141 0.387,0.126 0.366,0.12000001 0.312,0.117 0.219,0.117 0.156,0.117 0.126,0.093 0.126,0.045 0.126,0.015 0.156,0 0.219,0 h 1.059 c 0.195,0 0.375,0.06 0.546,0.177 0.189,0.129 0.285,0.288 0.285,0.474 0,0.237 -0.195,0.3810001 -0.408,0.423 0.264,0.063 0.5670001,0.264 0.5670001,0.5550001 z M 1.6620001,1.932 C 1.869,1.932 1.974,1.836 1.974,1.641 1.974,1.488 1.914,1.362 1.788,1.26 1.6620001,1.158 1.521,1.11 1.368,1.11 H 0.95100003 L 1.131,1.83 c 0.024,0.102 0.024,0.102 0.15,0.102 z M 1.746,0.897 C 1.788,0.828 1.809,0.759 1.809,0.684 1.809,0.528 1.7490001,0.393 1.626,0.282 1.503,0.171 1.365,0.117 1.206,0.117 H 0.801 c -0.03,0 -0.051,0 -0.063,0.003 -0.018,0 -0.027,0.006 -0.027,0.015 0,0.003 0,0.012 0.003,0.024 0.093,0.381 0.165,0.669 0.213,0.861 h 0.552 c 0.129,0 0.216,-0.042 0.267,-0.123 z"
                 id="path53" />
            </g>
          </g>
        </g>
        <g
           transform="translate(2.127,2.79)"
           id="g59">
          <g
             class="typst-text"
             transform="scale(1,-1)"
             id="g58">
            <g
               id="g57">
              <path
                 d="M 0.7413,0.7413 C 0.88199997,0.798 1.0164,0.9219 1.0164,1.1004 1.0164,1.1949 0.966,1.2705 0.8673,1.3251 0.7854,1.3713 0.69299996,1.3944 0.5901,1.3944 0.4872,1.3944 0.3969,1.3734 0.31919998,1.3293 0.22469998,1.2768 0.17639999,1.2033001 0.17639999,1.1088 c 0,-0.0798 0.0399,-0.1196999 0.11760001,-0.1196999 0.0651,0 0.11339998,0.0504 0.11339998,0.1155 0,0.0651 -0.0336,0.1029 -0.0987,0.1133999 0.0609,0.0651 0.1512,0.0987 0.27509996,0.0987 0.1365,0 0.21420004,-0.0819 0.21420004,-0.2163 0,-0.0987 -0.0273,-0.1785 -0.0798,-0.24150005 C 0.6594,0.78959996 0.6174,0.7791 0.4956,0.7707 0.4389,0.7665 0.4011,0.7728 0.4011,0.7308 0.4011,0.7056 0.4221,0.693 0.462,0.693 H 0.5733 C 0.7539,0.693 0.84209996,0.5565 0.84209996,0.36750002 0.84209996,0.1827 0.7581,0.042 0.58169997,0.042 0.42839998,0.042 0.3171,0.084 0.2478,0.17009999 0.3213,0.1785 0.35909998,0.22049999 0.35909998,0.294 c 0,0.0693 -0.0525,0.12179998 -0.12179998,0.12179998 -0.0819,0 -0.1239,-0.042 -0.1239,-0.12809998 0,-0.10710001 0.0546,-0.1932 0.1617,-0.2541 0.0903,-0.0504 0.19319998,-0.0756 0.3108,-0.0756 0.1281,0 0.2394,0.0357 0.336,0.1071 C 1.0268999,0.14279999 1.0794,0.2436 1.0794,0.36749998 1.0794,0.5628 0.90929997,0.6972 0.7413,0.7413 Z"
                 id="path56" />
            </g>
          </g>
        </g>
      </g>
    </g>
    <g
       transform="translate(63.799176,44.346811)"
       id="g69">
      <g
         transform="matrix(0.352778,0,0,0.352778,-0.593355,-0.492125)"
         id="g68">
        <g
           transform="translate(0,2.049)"
           id="g64">
          <g
             class="typst-text"
             transform="scale(1,-1)"
             id="g63">
            <g
               id="g62">
              <path
                 d="M 2.2680001,1.6290001 C 2.2680001,1.9020001 1.998,2.049 1.704,2.049 H 0.708 C 0.639,2.049 0.609,2.046 0.609,1.977 0.609,1.929 0.669,1.932 0.705,1.932 0.795,1.929 0.84900004,1.923 0.864,1.92 0.879,1.917 0.885,1.908 0.885,1.893 0.885,1.887 0.882,1.869 0.873,1.839 L 0.477,0.246 C 0.462,0.18 0.432,0.141 0.387,0.126 0.366,0.12000001 0.312,0.117 0.219,0.117 0.156,0.117 0.126,0.093 0.126,0.045 0.126,0.015 0.156,0 0.219,0 h 1.059 c 0.195,0 0.375,0.06 0.546,0.177 0.189,0.129 0.285,0.288 0.285,0.474 0,0.237 -0.195,0.3810001 -0.408,0.423 0.264,0.063 0.5670001,0.264 0.5670001,0.5550001 z M 1.6620001,1.932 C 1.869,1.932 1.974,1.836 1.974,1.641 1.974,1.488 1.914,1.362 1.788,1.26 1.6620001,1.158 1.521,1.11 1.368,1.11 H 0.95100003 L 1.131,1.83 c 0.024,0.102 0.024,0.102 0.15,0.102 z M 1.746,0.897 C 1.788,0.828 1.809,0.759 1.809,0.684 1.809,0.528 1.7490001,0.393 1.626,0.282 1.503,0.171 1.365,0.117 1.206,0.117 H 0.801 c -0.03,0 -0.051,0 -0.063,0.003 -0.018,0 -0.027,0.006 -0.027,0.015 0,0.003 0,0.012 0.003,0.024 0.093,0.381 0.165,0.669 0.213,0.861 h 0.552 c 0.129,0 0.216,-0.042 0.267,-0.123 z"
                 id="path61" />
            </g>
          </g>
        </g>
        <g
           transform="translate(2.127,2.79)"
           id="g67">
          <g
             class="typst-text"
             transform="scale(1,-1)"
             id="g66">
            <g
               id="g65">
              <path
                 d="m 0.82739997,1.4153999 c -0.0231,0 -0.0441,-0.0105 -0.0609,-0.0315 L 0.0819,0.4263 V 0.3402 H 0.6888 V 0.1785 C 0.6888,0.1428 0.6825,0.1176 0.6678,0.1071 0.65309995,0.0966 0.6069,0.09029999 0.5313,0.09029999 H 0.4662 V 0 L 0.7833,0.0084 1.1046,0 v 0.09029999 h -0.063 c -0.0777,0 -0.1239,0.0063 -0.1386,0.0168 -0.0147001,0.0105 -0.021,0.0357 -0.021,0.0714 V 0.34019998 H 1.1108999 V 0.4326 H 0.88199997 v 0.9156 c 0,0.0504 -0.0063,0.0672 -0.0546,0.0672 z M 0.7035,1.1571 V 0.4326 H 0.1827 Z"
                 id="path64" />
            </g>
          </g>
        </g>
      </g>
    </g>
    <g
       transform="translate(82.632677,42.646563)"
       id="g77">
      <g
         transform="matrix(0.352778,0,0,0.352778,-0.584465,-0.499533)"
         id="g76">
        <g
           transform="translate(0,2.049)"
           id="g72">
          <g
             class="typst-text"
             transform="scale(1,-1)"
             id="g71">
            <g
               id="g70">
              <path
                 d="M 2.2680001,1.6290001 C 2.2680001,1.9020001 1.998,2.049 1.704,2.049 H 0.708 C 0.639,2.049 0.609,2.046 0.609,1.977 0.609,1.929 0.669,1.932 0.705,1.932 0.795,1.929 0.84900004,1.923 0.864,1.92 0.879,1.917 0.885,1.908 0.885,1.893 0.885,1.887 0.882,1.869 0.873,1.839 L 0.477,0.246 C 0.462,0.18 0.432,0.141 0.387,0.126 0.366,0.12000001 0.312,0.117 0.219,0.117 0.156,0.117 0.126,0.093 0.126,0.045 0.126,0.015 0.156,0 0.219,0 h 1.059 c 0.195,0 0.375,0.06 0.546,0.177 0.189,0.129 0.285,0.288 0.285,0.474 0,0.237 -0.195,0.3810001 -0.408,0.423 0.264,0.063 0.5670001,0.264 0.5670001,0.5550001 z M 1.6620001,1.932 C 1.869,1.932 1.974,1.836 1.974,1.641 1.974,1.488 1.914,1.362 1.788,1.26 1.6620001,1.158 1.521,1.11 1.368,1.11 H 0.95100003 L 1.131,1.83 c 0.024,0.102 0.024,0.102 0.15,0.102 z M 1.746,0.897 C 1.788,0.828 1.809,0.759 1.809,0.684 1.809,0.528 1.7490001,0.393 1.626,0.282 1.503,0.171 1.365,0.117 1.206,0.117 H 0.801 c -0.03,0 -0.051,0 -0.063,0.003 -0.018,0 -0.027,0.006 -0.027,0.015 0,0.003 0,0.012 0.003,0.024 0.093,0.381 0.165,0.669 0.213,0.861 h 0.552 c 0.129,0 0.216,-0.042 0.267,-0.123 z"
                 id="path69" />
            </g>
          </g>
        </g>
        <g
           transform="translate(2.127,2.79)"
           id="g75">
          <g
             class="typst-text"
             transform="scale(1,-1)"
             id="g74">
            <g
               id="g73">
              <path
                 d="m 0.2898,0.6489 c 0.0147,0 0.0294,0.0105 0.0462,0.0314999 0.0672,0.0861 0.16169998,0.12810005 0.2814,0.12810005 0.1533,0 0.231,-0.126 0.231,-0.3759 0,-0.1218 -0.021,-0.21210001 -0.0609,-0.2709 C 0.7308,0.0819 0.65309995,0.042 0.5523,0.042 c -0.147,0 -0.2646,0.084 -0.31080001,0.19319999 0.0672,0 0.11339998,0.0441 0.11339998,0.11129999 0,0.0672 -0.0441,0.11340002 -0.11129997,0.11340002 C 0.1743,0.4494 0.13229999,0.4158 0.13229999,0.34019998 c 0,-0.11129999 0.0441,-0.20369998 0.13229999,-0.27719998 0.0819,-0.0693 0.18060002,-0.105 0.29189998,-0.105 0.1365,0 0.25410004,0.0462 0.3549,0.1344 C 1.0122,0.18059999 1.0604999,0.29189998 1.0604999,0.4242 c 0,0.1281 -0.0441,0.2352 -0.1280999,0.32549995 -0.084,0.0903 -0.189,0.13440001 -0.3129,0.13440001 -0.1113,0 -0.20370002,-0.0315 -0.2814,-0.0924 V 1.155 C 0.4053,1.1382 0.47039998,1.1298 0.5313,1.1298 c 0.0819,0 0.15959997,0.0168 0.23309995,0.0525 C 0.8232,1.2096 0.9723,1.2957 0.9723,1.3565999 c 0,0.0252 -0.0126,0.0378 -0.0357,0.0378 -0.1155,-0.0441 -0.2247,-0.0672 -0.32550004,-0.0672 -0.10289996,0 -0.20369998,0.0189 -0.29819998,0.0567 -0.0147,0.0063 -0.0231,0.0105 -0.0294,0.0105 -0.0231,0 -0.0357,-0.021 -0.0357,-0.0651 V 0.71819997 c 0,-0.042 0.0021,-0.0693 0.042,-0.0693 z"
                 id="path72" />
            </g>
          </g>
        </g>
      </g>
    </g>
    <g
       transform="translate(71.78476,37.631643)"
       id="g82">
      <g
         transform="matrix(0.352778,0,0,0.352778,-0.5334,-0.458611)"
         id="g81">
        <g
           transform="translate(0,2.732)"
           id="g80">
          <g
             class="typst-text"
             transform="scale(1,-1)"
             id="g79">
            <g
               id="g78">
              <path
                 d="M 0.54800004,0.012 C 0.62,0.012 0.86800003,0 0.94400007,0 c 0.06,0 0.088,0.032 0.088,0.09200001 0,0.03599999 -0.024,0.06 -0.0760001,0.06399999 -0.116,0.004 -0.17199999,0.044 -0.17199999,0.12000002 0,0.036 0.036,0.116 0.11199996,0.23599998 C 1.004,0.69200003 1.0799999,0.82400006 1.132,0.91200006 h 0.972 c 0,-0.028 0.004,-0.084 0.016,-0.17200006 C 2.148,0.448 2.164,0.28800002 2.164,0.268 2.164,0.192 2.0760002,0.156 1.8960001,0.156 1.82,0.156 1.784,0.12400001 1.784,0.06 1.784,0.02 1.8080001,0 1.8560001,0 1.9520001,0 2.256,0.012 2.352,0.012 2.4320002,0.012 2.716,0 2.7960002,0 c 0.06,0 0.088,0.032 0.088,0.096 0,0.04 -0.036,0.06 -0.108,0.06 -0.112,0 -0.1799998,0.008 -0.1999998,0.02 -0.02,0.012 -0.036,0.048 -0.04,0.10799999 L 2.2960004,2.756 c -0.012,0.076 -0.008,0.108 -0.092,0.108 -0.048,0 -0.088,-0.024 -0.116,-0.076 L 0.712,0.48000002 C 0.592,0.28 0.432,0.172 0.23600002,0.156 0.172,0.15200001 0.14,0.12000001 0.14,0.06 0.14,0.02 0.164,0 0.208,0 0.272,0 0.48400003,0.012 0.54800004,0.012 Z M 1.968,2.308 2.088,1.0680001 h -0.86 z"
                 id="path77" />
            </g>
          </g>
        </g>
      </g>
    </g>
  </g>
</svg>
