<?xml version="1.0" encoding="utf-8" standalone="yes"?>
<svg xmlns="http://www.w3.org/2000/svg" xmlns:xlink="http://www.w3.org/1999/xlink" version="1.1"
width="390px" height="390px" viewBox="-18 -120 135 135">
<title>Cumulative distribution function of log-normal distribution</title>
<defs>
	<pattern id="grid" width="20" height="20" patternUnits="userSpaceOnUse">
		<path d="M0,20v-20h20v20h-20" fill="none" stroke="#555" stroke-width=".25"/>
	</pattern>
</defs>
<rect y="-120" width="130" height="120" fill="url(#grid)"/>
<g font-size="6" stroke="none" fill="black" text-anchor="middle" font-family="New Century Schoolbook">
	<text y="6"><tspan x="0">0</tspan><tspan x="20">0.5</tspan><tspan x="40">1.0</tspan><tspan x="60">1.5</tspan><tspan x="80">2.0</tspan><tspan x="100">2.5</tspan></text>
	<text x="-5" y="0">0</text><text x="-5" y="-18">0.2</text><text x="-5" y="-38">0.4</text><text x="-5" y="-58">0.6</text><text x="-5" y="-78">0.8</text><text x="-5" y="-98">1.0</text>
	<g font-size="8"><text font-style="italic" x="60" y="12">x</text><text x="-12" y="-60" transform="rotate(-90,-12,-60)">CDF</text></g>
	<text fill="#f00" x="105" y="-47">σ=10</text>
	<text fill="#0f0" x="105" y="-67">σ=1.5</text>
	<text fill="#00f" x="105" y="-77">σ=1</text>
	<text fill="#aaf" x="105" y="-90">σ=0.5</text>
	<text fill="#005" x="105" y="-102">σ=0.125</text>	
	<text fill="#070" x="60" y="-102">σ=0.25</text>
</g>
<g fill="none">
	<path d="M0,0h130 M0,-120v120" stroke="black" stroke-width=".75"/>
	<path d="M0,0 L0.4,-32 Q 0.47,-33 0.53,-33 0.62,-34 0.71,-34 0.82,-35 0.94,-35 1.1,-36 1.3,-36 1.5,-37 1.7,-38 1.9,-38 2.2,-39 2.6,-39 2.9,-40 3.4,-40 3.9,-41 4.6,-41 5.2,-42 6.1,-43 6.9,-43 8.1,-44 9.2,-44 11,-45 12,-45 14,-46 16,-46 19,-47 22,-48 25,-48 29,-49 34,-49 38,-50 45,-50 51,-51 59,-52 68,-52 79,-53 90,-53 110,-54 120,-54" stroke="#f00"/>
	<path d="M0.4,-0.11 Q 0.45,-0.14 0.5,-0.18 0.57,-0.22 0.63,-0.28 0.71,-0.36 0.79,-0.45 0.89,-0.56 1,-0.69 1.1,-0.86 1.3,-1 1.4,-1.3 1.6,-1.5 1.8,-1.9 2,-2.2 2.2,-2.7 2.5,-3.2 2.8,-3.8 3.1,-4.4 3.5,-5.2 3.9,-6.1 4.4,-7.1 4.9,-8.1 5.6,-9.4 6.2,-11 7,-12 7.8,-14 8.8,-16 9.8,-17 11,-20 12,-22 14,-24 15,-26 17,-29 19,-31 22,-34 24,-37 27,-40 31,-43 34,-46 38,-49 43,-52 48,-55 54,-58 61,-61 68,-64 76,-67 86,-70 96,-72 110,-75 120,-77" stroke="#0f0"/>
	<path d="M0,0 L 1.7,-0.074 Q1.9,-0.12 2.2,-0.19 2.6,-0.29 2.9,-0.45 3.4,-0.67 3.9,-1 4.6,-1.5 5.2,-2.1 6.1,-2.9 6.9,-4 8.1,-5.4 9.2,-7.1 11,-9.4 12,-12 14,-15 16,-18 19,-23 22,-27 25,-32 29,-37 34,-43 38,-48 45,-55 51,-60 59,-66 68,-70 79,-76 90,-79 110,-84 120,-86" stroke="#00f"/>
	<path d="M0,0 H6.9 Q8.1,-0.042 9.2,-0.17 11,-0.32 12,-0.9 14,-1.7 16,-3.6 19,-6.3 22,-11 25,-17 29,-26 34,-37 38,-47 45,-60 51,-69 59,-80 68,-85 79,-93 90,-95 110,-98 120,-99" stroke="#aaf"/>
	<path d="M0,0 H16 Q 19,0.077 22,-0.71 25,-1.5 29,-9.5 34,-22 38,-43 45,-71 51,-83 59,-98 68,-98 79,-100 90,-100 H120" stroke="#070"/>
	<path d="M0,0 H24 Q27,0.43 30,-1.3 33,-2.7 36,-22 39,-44 42,-67 45,-87 48,-93 51,-99 54,-99 57,-100 60,-100 H120" stroke="#005"/>
</g>
</svg>